<svg width="74" height="65" viewBox="0 0 74 65" fill="none" xmlns="http://www.w3.org/2000/svg">
<g clip-path="url(#clip0_1_1179)">
<path d="M18.7301 38.1621C17.8171 38.064 16.4363 37.7683 16.2691 39.0016C16.0841 40.3651 17.3775 40.1427 18.201 40.2397C18.8113 40.3117 19.6407 40.6765 20.1575 40.2193C20.5489 39.8747 20.4209 39.4965 20.5779 39.1227C20.8751 38.4148 21.4862 37.5367 21.6811 36.7991C21.8948 35.9888 21.5193 35.2717 20.6215 35.2881C19.5208 35.3078 19.1591 37.3886 18.7286 38.1632L18.7301 38.1621Z" fill="#323E47"/>
<path d="M14.0501 51.0496C13.5477 52.3914 15.2988 52.8376 16.2634 53.0273C17.2967 53.2305 20.2305 53.486 20.0151 51.8156C19.8323 50.4052 17.902 51.1011 16.9451 50.9675C16.1343 50.8531 14.5118 49.8183 14.0501 51.0496Z" fill="#323E47"/>
<path d="M35.9278 18.7507C35.5661 19.6321 36.1745 20.474 37.1258 20.3272C37.4215 20.2821 39.308 19.0308 39.5266 18.7704C40.2951 17.8557 39.2332 16.6074 38.0015 17.2346C37.6712 17.4026 36.0305 18.5033 35.9291 18.7509L35.9278 18.7507Z" fill="#323E47"/>
<path d="M10.2022 46.3169C10.0934 46.8546 10.6701 48.7229 11.0204 49.1631C11.7417 50.0695 13.0534 49.6274 13.0056 48.4788C12.6153 47.8898 12.4645 46.2809 12.0811 45.8488C11.4964 45.1915 10.3769 45.4539 10.2034 46.3171L10.2022 46.3169Z" fill="#323E47"/>
<path d="M26.1624 27.3673C25.8751 28.2196 26.6482 29.1039 27.5203 28.7952C27.8581 28.6755 29.4555 27.0718 29.627 26.7332C30.0997 25.7985 29.1791 24.9253 28.2316 25.2515C27.9521 25.3475 26.2565 27.0893 26.1623 27.3685L26.1624 27.3673Z" fill="#323E47"/>
<path d="M23.035 44.4616C23.6894 45.0584 24.7347 44.9274 24.9132 43.9895C25.0373 43.339 24.054 41.1426 23.4146 40.8979C22.7752 40.6532 22.1644 40.811 21.9168 41.4747C21.6148 42.2841 22.8639 43.6072 23.035 44.4616Z" fill="#323E47"/>
<path d="M10.9596 42.2468C10.8184 43.1555 11.9205 43.7861 12.6876 43.2403C13.1363 42.3316 14.8992 41.3119 14.3228 40.2063C13.4238 38.4842 11.1167 41.2395 10.9596 42.2468Z" fill="#323E47"/>
<path d="M22.0924 33.3158C22.4129 33.7966 23.1928 33.9219 23.6627 33.5935C23.9004 33.4278 25.2619 31.6362 25.354 31.3631C25.6473 30.4861 24.8251 29.803 23.9671 30.0179C23.5969 30.1113 22.2287 31.8483 22.0729 32.2414C21.9324 32.5971 21.8647 32.9733 22.0924 33.3158Z" fill="#323E47"/>
<path d="M30.7434 23.1093C30.6001 23.9295 31.4555 24.5278 32.2262 24.2585C32.5193 24.1568 34.1801 22.737 34.3493 22.453C34.8939 21.5361 33.9865 20.4808 32.9982 20.9098C32.5313 21.1122 30.8324 22.6045 30.7436 23.108L30.7434 23.1093Z" fill="#323E47"/>
<path d="M21.6453 49.369C21.3498 50.2061 21.794 50.8793 22.6915 50.8653C23.7121 50.8496 25.9106 47.3841 23.9423 46.9622C22.9164 46.7421 22.7072 47.7178 22.319 48.3694C22.1447 48.6629 21.7426 49.0953 21.6464 49.3704L21.6453 49.369Z" fill="#323E47"/>
<path d="M53.3799 6.04355C52.9648 5.93903 52.1012 5.81722 51.6739 5.80293C50.8424 5.77506 49.5167 6.05556 48.733 6.35502C45.3593 7.64181 43.4951 11.1557 44.0173 14.7112C43.0344 14.8446 40.8139 15.271 41.6456 16.7332C42.2776 17.8455 43.7531 16.7623 44.6999 16.7719C46.5939 20.1313 50.3824 21.8024 54.1022 20.4955C61.0708 18.0476 60.4478 7.82212 53.3811 6.04372L53.3799 6.04355ZM50.777 18.7237C47.8252 18.3073 45.7554 15.5835 46.1546 12.6408C46.5538 9.69807 49.2711 7.64942 52.2228 8.06575C55.1746 8.48207 57.2444 11.2059 56.8452 14.1486C56.446 17.0913 53.7287 19.14 50.777 18.7237Z" fill="#323E47"/>
<path d="M35.8626 35.7503L37.246 28.0588C37.9183 26.1059 40.3658 25.9211 41.3234 27.7444C41.7852 28.6235 41.275 29.8037 41.1877 30.7288C42.172 30.6034 43.0515 31.0075 43.55 31.8826C44.8059 31.3328 46.0937 31.9603 46.5854 33.2081C47.0571 33.16 47.4908 33.0897 47.9448 33.2606C48.8817 33.6129 49.4425 34.4648 49.3918 35.4672C49.3469 36.3521 48.9728 38.2748 48.7501 39.1687C47.1406 45.6302 39.1255 47.0721 35.0862 41.9472C33.386 39.7901 31.9344 37.316 30.2544 35.1305C29.4735 33.7972 31.793 33.3335 32.7169 33.4194C33.3253 33.4756 34.5464 33.8949 34.8997 34.3929L35.8626 35.7503ZM31.8689 34.9035L36.6835 41.6904C36.945 42.0591 38.0397 42.8006 38.4749 43.022C41.7354 44.6819 45.7924 43.0708 47.1391 39.6558C47.4518 38.8644 47.9478 36.3279 47.9843 35.471C48.0094 34.8717 47.5614 34.3758 46.9531 34.6021C46.3449 34.8285 46.52 35.3377 46.2121 35.6054C46.0683 35.7305 45.7102 35.8233 45.5288 35.7487C44.5592 35.3473 45.4568 34.1998 45.1725 33.5466C45.0113 33.1768 44.5233 32.968 44.1517 33.1516C43.2564 33.5937 43.9179 35.1721 42.8865 35.2798C41.6239 35.4123 42.3781 33.5877 42.3911 32.9971C42.4106 32.062 41.303 31.7897 40.8906 32.6088C40.4782 33.4278 40.863 36.4587 39.2519 35.6066C39.0531 35.442 39.0174 35.1776 39.0392 34.9346L40.1203 28.7208C40.1195 27.7029 38.7907 27.5796 38.5575 28.5571L36.9692 37.6482C36.8688 38.1896 36.2143 38.4207 35.8146 38.0469C35.0176 37.3014 34.4878 35.7589 33.5473 35.1304C33.124 34.8475 32.3394 34.6627 31.8696 34.9031L31.8689 34.9035Z" fill="#323E47"/>
</g>
<defs>
<clipPath id="clip0_1_1179">
<rect width="68.8079" height="29.9932" fill="white" transform="matrix(-0.813518 0.58154 0.58154 0.813517 55.9766 0)"/>
</clipPath>
</defs>
</svg>
